<svg xmlns="http://www.w3.org/2000/svg" viewBox="0 0 2400 1200" width="2400" height="1200" preserveAspectRatio="xMidYMid slice"><defs><linearGradient id="ceil" x1="0" y1="0" x2="0" y2="1"><stop offset="0" stop-color="#10141a"/><stop offset="0.55" stop-color="#1b2128"/><stop offset="1" stop-color="#262d35"/></linearGradient><linearGradient id="wall" x1="0" y1="0" x2="0" y2="1"><stop offset="0" stop-color="#3a4047"/><stop offset="1" stop-color="#2c333a"/></linearGradient><linearGradient id="sky" x1="0" y1="0" x2="0" y2="1"><stop offset="0" stop-color="#cfe2ef"/><stop offset="0.6" stop-color="#aecbe0"/><stop offset="1" stop-color="#8fb0c9"/></linearGradient><linearGradient id="floor" x1="0" y1="0" x2="0" y2="1"><stop offset="0" stop-color="#4a4f55"/><stop offset="0.4" stop-color="#3a3f45"/><stop offset="1" stop-color="#24282d"/></linearGradient><linearGradient id="vtop" x1="0" y1="0" x2="0" y2="1"><stop offset="0" stop-color="#000000" stop-opacity="0.45"/><stop offset="1" stop-color="#000000" stop-opacity="0"/></linearGradient><linearGradient id="vbot" x1="0" y1="0" x2="0" y2="1"><stop offset="0" stop-color="#000000" stop-opacity="0"/><stop offset="1" stop-color="#000000" stop-opacity="0.5"/></linearGradient></defs><rect x="0" y="0" width="2400" height="720" fill="url(#ceil)"/><rect x="0" y="720" width="2400" height="480" fill="url(#floor)"/><rect x="0" y="300" width="2400" height="420" fill="url(#wall)"/><rect x="0" y="90" width="2400" height="6" fill="#0c0f13" opacity="0.7"/><rect x="0" y="175" width="2400" height="6" fill="#0c0f13" opacity="0.7"/><rect x="0" y="260" width="2400" height="6" fill="#0c0f13" opacity="0.7"/><polygon points="-4,6 4,6 123.0,300 117.0,300" fill="#0c0f13" opacity="0.55"/><polygon points="196,6 204,6 303.0,300 297.0,300" fill="#0c0f13" opacity="0.55"/><polygon points="396,6 404,6 483.0,300 477.0,300" fill="#0c0f13" opacity="0.55"/><polygon points="596,6 604,6 663.0,300 657.0,300" fill="#0c0f13" opacity="0.55"/><polygon points="796,6 804,6 843.0,300 837.0,300" fill="#0c0f13" opacity="0.55"/><polygon points="996,6 1004,6 1023.0,300 1017.0,300" fill="#0c0f13" opacity="0.55"/><polygon points="1196,6 1204,6 1203.0,300 1197.0,300" fill="#0c0f13" opacity="0.55"/><polygon points="1396,6 1404,6 1383.0,300 1377.0,300" fill="#0c0f13" opacity="0.55"/><polygon points="1596,6 1604,6 1563.0,300 1557.0,300" fill="#0c0f13" opacity="0.55"/><polygon points="1796,6 1804,6 1743.0,300 1737.0,300" fill="#0c0f13" opacity="0.55"/><polygon points="1996,6 2004,6 1923.0,300 1917.0,300" fill="#0c0f13" opacity="0.55"/><polygon points="2196,6 2204,6 2103.0,300 2097.0,300" fill="#0c0f13" opacity="0.55"/><polygon points="2396,6 2404,6 2283.0,300 2277.0,300" fill="#0c0f13" opacity="0.55"/><rect x="-9" y="294" width="18" height="426" fill="#20262c"/><rect x="-9" y="294" width="5" height="426" fill="#2f363d"/><rect x="38" y="360" width="124" height="300" fill="url(#sky)"/><rect x="98.0" y="360" width="4" height="300" fill="#33424d" opacity="0.8"/><rect x="38" y="508.0" width="124" height="4" fill="#33424d" opacity="0.8"/><rect x="38" y="360" width="124" height="300" fill="none" stroke="#171c21" stroke-width="6"/><rect x="191" y="294" width="18" height="426" fill="#20262c"/><rect x="191" y="294" width="5" height="426" fill="#2f363d"/><rect x="238" y="360" width="124" height="300" fill="url(#sky)"/><rect x="298.0" y="360" width="4" height="300" fill="#33424d" opacity="0.8"/><rect x="238" y="508.0" width="124" height="4" fill="#33424d" opacity="0.8"/><rect x="238" y="360" width="124" height="300" fill="none" stroke="#171c21" stroke-width="6"/><rect x="391" y="294" width="18" height="426" fill="#20262c"/><rect x="391" y="294" width="5" height="426" fill="#2f363d"/><rect x="438" y="360" width="124" height="300" fill="url(#sky)"/><rect x="498.0" y="360" width="4" height="300" fill="#33424d" opacity="0.8"/><rect x="438" y="508.0" width="124" height="4" fill="#33424d" opacity="0.8"/><rect x="438" y="360" width="124" height="300" fill="none" stroke="#171c21" stroke-width="6"/><rect x="591" y="294" width="18" height="426" fill="#20262c"/><rect x="591" y="294" width="5" height="426" fill="#2f363d"/><rect x="638" y="360" width="124" height="300" fill="url(#sky)"/><rect x="698.0" y="360" width="4" height="300" fill="#33424d" opacity="0.8"/><rect x="638" y="508.0" width="124" height="4" fill="#33424d" opacity="0.8"/><rect x="638" y="360" width="124" height="300" fill="none" stroke="#171c21" stroke-width="6"/><rect x="791" y="294" width="18" height="426" fill="#20262c"/><rect x="791" y="294" width="5" height="426" fill="#2f363d"/><rect x="838" y="360" width="124" height="300" fill="url(#sky)"/><rect x="898.0" y="360" width="4" height="300" fill="#33424d" opacity="0.8"/><rect x="838" y="508.0" width="124" height="4" fill="#33424d" opacity="0.8"/><rect x="838" y="360" width="124" height="300" fill="none" stroke="#171c21" stroke-width="6"/><rect x="991" y="294" width="18" height="426" fill="#20262c"/><rect x="991" y="294" width="5" height="426" fill="#2f363d"/><rect x="1038" y="360" width="124" height="300" fill="url(#sky)"/><rect x="1098.0" y="360" width="4" height="300" fill="#33424d" opacity="0.8"/><rect x="1038" y="508.0" width="124" height="4" fill="#33424d" opacity="0.8"/><rect x="1038" y="360" width="124" height="300" fill="none" stroke="#171c21" stroke-width="6"/><rect x="1191" y="294" width="18" height="426" fill="#20262c"/><rect x="1191" y="294" width="5" height="426" fill="#2f363d"/><rect x="1238" y="360" width="124" height="300" fill="url(#sky)"/><rect x="1298.0" y="360" width="4" height="300" fill="#33424d" opacity="0.8"/><rect x="1238" y="508.0" width="124" height="4" fill="#33424d" opacity="0.8"/><rect x="1238" y="360" width="124" height="300" fill="none" stroke="#171c21" stroke-width="6"/><rect x="1391" y="294" width="18" height="426" fill="#20262c"/><rect x="1391" y="294" width="5" height="426" fill="#2f363d"/><rect x="1438" y="360" width="124" height="300" fill="url(#sky)"/><rect x="1498.0" y="360" width="4" height="300" fill="#33424d" opacity="0.8"/><rect x="1438" y="508.0" width="124" height="4" fill="#33424d" opacity="0.8"/><rect x="1438" y="360" width="124" height="300" fill="none" stroke="#171c21" stroke-width="6"/><rect x="1591" y="294" width="18" height="426" fill="#20262c"/><rect x="1591" y="294" width="5" height="426" fill="#2f363d"/><rect x="1638" y="360" width="124" height="300" fill="url(#sky)"/><rect x="1698.0" y="360" width="4" height="300" fill="#33424d" opacity="0.8"/><rect x="1638" y="508.0" width="124" height="4" fill="#33424d" opacity="0.8"/><rect x="1638" y="360" width="124" height="300" fill="none" stroke="#171c21" stroke-width="6"/><rect x="1791" y="294" width="18" height="426" fill="#20262c"/><rect x="1791" y="294" width="5" height="426" fill="#2f363d"/><rect x="1838" y="360" width="124" height="300" fill="url(#sky)"/><rect x="1898.0" y="360" width="4" height="300" fill="#33424d" opacity="0.8"/><rect x="1838" y="508.0" width="124" height="4" fill="#33424d" opacity="0.8"/><rect x="1838" y="360" width="124" height="300" fill="none" stroke="#171c21" stroke-width="6"/><rect x="1991" y="294" width="18" height="426" fill="#20262c"/><rect x="1991" y="294" width="5" height="426" fill="#2f363d"/><rect x="2038" y="360" width="124" height="300" fill="url(#sky)"/><rect x="2098.0" y="360" width="4" height="300" fill="#33424d" opacity="0.8"/><rect x="2038" y="508.0" width="124" height="4" fill="#33424d" opacity="0.8"/><rect x="2038" y="360" width="124" height="300" fill="none" stroke="#171c21" stroke-width="6"/><rect x="2191" y="294" width="18" height="426" fill="#20262c"/><rect x="2191" y="294" width="5" height="426" fill="#2f363d"/><rect x="2238" y="360" width="124" height="300" fill="url(#sky)"/><rect x="2298.0" y="360" width="4" height="300" fill="#33424d" opacity="0.8"/><rect x="2238" y="508.0" width="124" height="4" fill="#33424d" opacity="0.8"/><rect x="2238" y="360" width="124" height="300" fill="none" stroke="#171c21" stroke-width="6"/><line x1="0" y1="720" x2="1020.0" y2="1200" stroke="#1c2025" stroke-width="2" opacity="0.6"/><line x1="100" y1="720" x2="1035.0" y2="1200" stroke="#1c2025" stroke-width="2" opacity="0.6"/><line x1="200" y1="720" x2="1050.0" y2="1200" stroke="#1c2025" stroke-width="2" opacity="0.6"/><line x1="300" y1="720" x2="1065.0" y2="1200" stroke="#1c2025" stroke-width="2" opacity="0.6"/><line x1="400" y1="720" x2="1080.0" y2="1200" stroke="#1c2025" stroke-width="2" opacity="0.6"/><line x1="500" y1="720" x2="1095.0" y2="1200" stroke="#1c2025" stroke-width="2" opacity="0.6"/><line x1="600" y1="720" x2="1110.0" y2="1200" stroke="#1c2025" stroke-width="2" opacity="0.6"/><line x1="700" y1="720" x2="1125.0" y2="1200" stroke="#1c2025" stroke-width="2" opacity="0.6"/><line x1="800" y1="720" x2="1140.0" y2="1200" stroke="#1c2025" stroke-width="2" opacity="0.6"/><line x1="900" y1="720" x2="1155.0" y2="1200" stroke="#1c2025" stroke-width="2" opacity="0.6"/><line x1="1000" y1="720" x2="1170.0" y2="1200" stroke="#1c2025" stroke-width="2" opacity="0.6"/><line x1="1100" y1="720" x2="1185.0" y2="1200" stroke="#1c2025" stroke-width="2" opacity="0.6"/><line x1="1200" y1="720" x2="1200.0" y2="1200" stroke="#1c2025" stroke-width="2" opacity="0.6"/><line x1="1300" y1="720" x2="1215.0" y2="1200" stroke="#1c2025" stroke-width="2" opacity="0.6"/><line x1="1400" y1="720" x2="1230.0" y2="1200" stroke="#1c2025" stroke-width="2" opacity="0.6"/><line x1="1500" y1="720" x2="1245.0" y2="1200" stroke="#1c2025" stroke-width="2" opacity="0.6"/><line x1="1600" y1="720" x2="1260.0" y2="1200" stroke="#1c2025" stroke-width="2" opacity="0.6"/><line x1="1700" y1="720" x2="1275.0" y2="1200" stroke="#1c2025" stroke-width="2" opacity="0.6"/><line x1="1800" y1="720" x2="1290.0" y2="1200" stroke="#1c2025" stroke-width="2" opacity="0.6"/><line x1="1900" y1="720" x2="1305.0" y2="1200" stroke="#1c2025" stroke-width="2" opacity="0.6"/><line x1="2000" y1="720" x2="1320.0" y2="1200" stroke="#1c2025" stroke-width="2" opacity="0.6"/><line x1="2100" y1="720" x2="1335.0" y2="1200" stroke="#1c2025" stroke-width="2" opacity="0.6"/><line x1="2200" y1="720" x2="1350.0" y2="1200" stroke="#1c2025" stroke-width="2" opacity="0.6"/><line x1="2300" y1="720" x2="1365.0" y2="1200" stroke="#1c2025" stroke-width="2" opacity="0.6"/><line x1="2400" y1="720" x2="1380.0" y2="1200" stroke="#1c2025" stroke-width="2" opacity="0.6"/><line x1="0" y1="778" x2="2400" y2="778" stroke="#1c2025" stroke-width="2" opacity="0.45"/><line x1="0" y1="854" x2="2400" y2="854" stroke="#1c2025" stroke-width="2" opacity="0.45"/><line x1="0" y1="960" x2="2400" y2="960" stroke="#1c2025" stroke-width="2" opacity="0.45"/><line x1="0" y1="1094" x2="2400" y2="1094" stroke="#1c2025" stroke-width="2" opacity="0.45"/><rect x="630" y="760" width="150" height="26" rx="4" fill="#5a4a32"/><line x1="642" y1="750" x2="642" y2="786" stroke="#8a7752" stroke-width="5"/><line x1="666" y1="750" x2="666" y2="786" stroke="#8a7752" stroke-width="5"/><line x1="690" y1="750" x2="690" y2="786" stroke="#8a7752" stroke-width="5"/><line x1="714" y1="750" x2="714" y2="786" stroke="#8a7752" stroke-width="5"/><line x1="738" y1="750" x2="738" y2="786" stroke="#8a7752" stroke-width="5"/><line x1="762" y1="750" x2="762" y2="786" stroke="#8a7752" stroke-width="5"/><path d="M1460 790 l110 0 l-18 50 l-74 0 z" fill="#7a4030"/><circle cx="1490" cy="855" r="16" fill="#15181c"/><rect x="1898.0" y="370" width="4" height="170" fill="#2b3a44" opacity="0.85"/><rect x="1830.0" y="385" width="150" height="4" fill="#2b3a44" opacity="0.85"/><line x1="1960.0" y1="389" x2="1960.0" y2="430" stroke="#2b3a44" stroke-width="2" opacity="0.85"/><rect x="0" y="0" width="2400" height="200" fill="url(#vtop)"/><rect x="0" y="980" width="2400" height="220" fill="url(#vbot)"/></svg>